<?xml version="1.0" encoding="UTF-8" standalone="no"?>
<!-- Created with Inkscape (http://www.inkscape.org/) -->

<svg
   xmlns:dc="http://purl.org/dc/elements/1.1/"
   xmlns:cc="http://creativecommons.org/ns#"
   xmlns:rdf="http://www.w3.org/1999/02/22-rdf-syntax-ns#"
   xmlns:svg="http://www.w3.org/2000/svg"
   xmlns="http://www.w3.org/2000/svg"
   xmlns:sodipodi="http://sodipodi.sourceforge.net/DTD/sodipodi-0.dtd"
   xmlns:inkscape="http://www.inkscape.org/namespaces/inkscape"
   width="210mm"
   height="297mm"
   viewBox="0 0 744.09448819 1052.3622047"
   id="svg15735"
   version="1.1"
   inkscape:version="0.91 r13725"
   sodipodi:docname="logo-bak.svg">
  <defs
     id="defs15737" />
  <sodipodi:namedview
     id="base"
     pagecolor="#ffffff"
     bordercolor="#666666"
     borderopacity="1.0"
     inkscape:pageopacity="0.0"
     inkscape:pageshadow="2"
     inkscape:zoom="0.7"
     inkscape:cx="341.83612"
     inkscape:cy="568.15946"
     inkscape:document-units="px"
     inkscape:current-layer="layer7"
     showgrid="false"
     inkscape:snap-global="false" />
  <metadata
     id="metadata15740">
    <rdf:RDF>
      <cc:Work
         rdf:about="">
        <dc:format>image/svg+xml</dc:format>
        <dc:type
           rdf:resource="http://purl.org/dc/dcmitype/StillImage" />
        <dc:title></dc:title>
      </cc:Work>
    </rdf:RDF>
  </metadata>
  <g
     inkscape:groupmode="layer"
     id="layer7"
     inkscape:label="Beard"
     style="display:inline" />
  <g
     inkscape:groupmode="layer"
     id="layer4"
     inkscape:label="Skull"
     style="display:inline" />
  <g
     inkscape:groupmode="layer"
     id="layer6"
     inkscape:label="Mustache"
     style="display:inline" />
  <g
     inkscape:groupmode="layer"
     id="layer9"
     inkscape:label="Teeth"
     style="display:inline" />
  <g
     inkscape:groupmode="layer"
     id="layer2"
     inkscape:label="Horns"
     style="display:inline">
    <g
       id="g4541"
       transform="matrix(0.67119557,0,0,0.67119557,-0.45471246,347.45958)">
      <path
         sodipodi:nodetypes="ccccccccccccccccccccccccccccccccccccccccccscccccc"
         inkscape:connector-curvature="0"
         id="path4449"
         d="m 285.56051,858.79317 c 2.47616,10.28559 3.52376,19.99975 -3.71424,30.85675 2.85711,-1.14284 5.71421,-2.28568 8.57132,-3.42852 -3.52376,12.6665 -12.76174,18.19024 -13.14269,31.14247 3.14282,-4.95233 5.57136,-7.61896 8.57132,-9.71417 -7.95228,11.57129 -5.76183,33.42816 -8.85703,41.99948 3.19044,-3.38091 5.23803,-3.33329 7.42848,-6.28564 -3.04758,6.38087 -2.66663,11.6189 -4.85709,18.28549 2.95235,-1.8095 4.19042,-4.76185 6.28564,-7.14277 -1.71427,7.52371 -1.2857,16.04742 -5.14279,22.57115 4.1428,-0.95237 6.99991,-5.61898 11.14271,-6.28564 -4.38089,10.76177 0.5238,21.38069 4.85709,28.85679 2.09521,-3.38091 1.47617,-7.76181 3.71424,-9.71417 0.66665,8.99989 9.04751,14.28551 10.5713,26.57111 1.71426,-3.4762 0.99999,-8.238 2.57139,-10.857 5.61898,5.9047 5.66659,13.5236 4.85708,21.1426 3.23806,-3.4762 4.76185,-9.238 7.9999,-12.5713 3.6632,4.542 1.8952,9.8344 3.42853,14.5713 1.09522,-4.3333 3.04758,-5.9524 5.42851,-7.4285 1.85712,8.9999 9.42845,17.5712 16.28551,21.4283 -3.61901,-5.9047 -4.95233,-10.8094 -3.99995,-15.9998 3.33329,6.8094 6.80944,8.6189 10.857,11.4284 -1.19046,-3.8095 -1.38093,-6.1904 -0.57142,-7.9999 5.28564,3.4285 7.14277,11.857 11.99985,15.4284 -0.71427,-8.3332 1.57141,-12.6665 5.1428,-15.1427 2.80948,6.8571 0.47618,12.7141 2.8571,19.7141 1.95236,-8.7618 8.61894,-12.0951 10.5713,-20.2855 1.52379,3.1904 0.76189,6.0952 1.14284,9.1427 4.33328,-1.7142 7.09515,-7.5713 10.85701,-11.9998 0.23809,4.9047 -0.66666,10.3808 -4.85708,13.9998 10.95224,-0.9047 14.04744,-12.8094 18.28548,-20.8569 1.14284,3.619 3.42852,5.2381 5.4285,7.4285 -0.71427,-5.0475 0.42857,-9.5237 2.28569,-12.5713 2.38092,4.2381 3.76186,8.0476 7.9999,10.5713 -2.19044,-9.3332 1.90474,-13.5236 2.85711,-20.2854 2.38092,4.619 3.47615,8.9522 5.85707,13.4284 -1.14284,-12.9522 8.42846,-19.61883 9.85702,-30.28537 1.85712,4.76185 3.28567,10.23797 3.42853,15.14267 5.1374,-8.71279 6.38097,-19.9261 5.71421,-31.42818 3.8571,3.66662 7.42848,2.47616 11.14272,3.71425 -6.57135,-9.04751 -5.57136,-19.09501 -6.85706,-28.85679 2.5714,3.99995 5.14279,7.9999 7.71419,11.99985 1.19713,-9.48269 -3.22638,-19.91224 -3.11107,-29.24056 0.11558,-9.35107 -2.10493,-16.78009 -4.60312,-21.33024 4.09519,2.04759 6.47611,6.66658 9.71417,9.99988 -0.2381,-10.95225 -10.76177,-21.04736 -11.42844,-31.14247 2.61902,1.57141 4.52376,4.28566 7.7142,4.42852 -8.23799,-10.19035 -5.33327,-28.3806 -6.57135,-34.99956 -58.47546,0.66665 -116.95092,1.33332 -175.42638,1.99997 z"
         style="display:inline;fill:#000000;fill-opacity:1;fill-rule:evenodd;stroke:#ff36ff;stroke-width:0;stroke-linecap:butt;stroke-linejoin:miter;stroke-miterlimit:4;stroke-dasharray:none;stroke-opacity:1" />
      <path
         sodipodi:nodetypes="sssccccccccccccss"
         inkscape:connector-curvature="0"
         id="path4442"
         d="m 327.29493,687.77816 c 16.41076,-5.9735 64.13254,-9.20614 90.89229,1.66524 43.30708,17.59389 54.32985,45.03834 55.32696,73.67684 0.47628,13.67953 -3.45561,27.89504 -5.46913,37.5569 7.31874,12.60408 8.06611,22.63677 1.38502,33.5266 l 0.39019,9.44529 -5.28515,13.48022 -23.22876,7.11606 c -13.34532,-7.54722 -22.11925,-3.09459 -26.32183,11.64363 l -85.0618,-0.75511 C 329.55427,866.93118 320.9002,855.3 306.53193,865.95426 l -25.59112,-7.37256 -6.49969,-13.65747 2.25843,-10.14483 c -5.3596,-11.11159 -5.5764,-21.93746 1.92099,-31.62049 -2.94954,-13.94752 -8.06523,-31.59349 -8.27719,-44.12825 -0.73018,-43.17916 43.59481,-66.39065 56.95158,-71.2525 z"
         style="display:inline;opacity:1;fill:#000000;fill-opacity:1;fill-rule:evenodd;stroke:#ffffff;stroke-width:3.99994993;stroke-linecap:butt;stroke-linejoin:miter;stroke-miterlimit:4;stroke-dasharray:none;stroke-opacity:1" />
      <path
         sodipodi:nodetypes="csscccssccc"
         inkscape:connector-curvature="0"
         id="path4453"
         d="m 369.84517,807.70809 c 0,0 -15.73431,33.21709 -15.42838,37.71382 0.32419,4.76507 6.27159,14.28322 8.57133,14.85696 2.69086,0.67131 7.9999,-2.28569 7.9999,-2.28569 l 3.42852,-11.99985 5.1428,11.42843 c 0,0 5.55666,2.27715 7.9999,1.14284 2.39654,-1.11264 6.84701,-10.34657 6.85705,-13.14269 0.0206,-5.72338 -17.14264,-38.85666 -17.14264,-38.85666 l -3.42853,3.42853 z"
         style="display:inline;fill:#ffffff;fill-opacity:1;fill-rule:evenodd;stroke:none;stroke-width:1px;stroke-linecap:butt;stroke-linejoin:miter;stroke-opacity:1" />
      <path
         sodipodi:nodetypes="ssccs"
         inkscape:connector-curvature="0"
         id="path4455"
         d="m 344.70263,791.93687 c -47.22903,-30.07524 -50.89028,14.04639 -37.14239,22.85685 10.82097,6.93473 25.52348,3.04758 38.28523,4.57137 l 17.71407,-22.28543 c -6.28564,-1.71427 -13.36136,-1.64325 -18.85691,-5.14279 z"
         style="display:inline;fill:#ffffff;fill-opacity:1;fill-rule:evenodd;stroke:none;stroke-width:1px;stroke-linecap:butt;stroke-linejoin:miter;stroke-opacity:1" />
      <path
         style="display:inline;fill:#ffffff;fill-opacity:1;fill-rule:evenodd;stroke:none;stroke-width:1px;stroke-linecap:butt;stroke-linejoin:miter;stroke-opacity:1"
         d="m 402.8518,792.50829 c 47.22902,-30.07523 50.89027,14.04639 37.14239,22.85686 -10.82098,6.93473 -25.52349,3.04758 -38.28524,4.57137 l -17.71406,-22.28544 c 6.28563,-1.71426 13.36135,-1.64325 18.85691,-5.14279 z"
         id="path4457"
         inkscape:connector-curvature="0"
         sodipodi:nodetypes="ssccs" />
      <path
         sodipodi:nodetypes="cscscscsc"
         inkscape:connector-curvature="0"
         id="path4446"
         d="m 307.27453,874.50726 c 0,0 -20.47046,19.6831 1.14284,30.85676 28.37936,14.67158 64.57062,-9.42845 64.57062,-9.42845 0,0 39.04271,23.82991 63.14207,9.99987 23.89662,-13.71369 5.4285,-31.42818 5.4285,-31.42818 0,0 -2.84934,24.22013 -19.71404,8.28561 -29.99805,-28.3435 -48.28511,-10.28559 -48.28511,-10.28559 0,0 -17.62172,-17.65825 -49.42795,9.99988 -18.49931,16.08666 -16.85693,-7.9999 -16.85693,-7.9999 z"
         style="display:inline;fill:#000000;fill-opacity:1;fill-rule:evenodd;stroke:#ffffff;stroke-width:3.99994993;stroke-linecap:butt;stroke-linejoin:miter;stroke-miterlimit:4;stroke-dasharray:none;stroke-opacity:1" />
      <path
         sodipodi:nodetypes="ccssc"
         inkscape:connector-curvature="0"
         id="path4459"
         d="m 370.84516,902.36406 c -2.95234,2.04759 -6.04754,3.66662 -10.14273,5.28565 0.54891,2.9492 0.77828,6.35002 1.63031,8.38076 0.7906,1.88431 8.06585,1.43027 8.94099,0.61912 1.76135,-1.63255 0.90475,-9.14274 -0.42857,-14.28553 z"
         style="display:inline;fill:#ffffff;fill-opacity:1;fill-rule:evenodd;stroke:none;stroke-width:1px;stroke-linecap:butt;stroke-linejoin:miter;stroke-opacity:1" />
      <path
         style="display:inline;fill:#ffffff;fill-opacity:1;fill-rule:evenodd;stroke:none;stroke-width:1px;stroke-linecap:butt;stroke-linejoin:miter;stroke-opacity:1"
         d="m 375.43447,902.64977 c 3.28568,2.04759 7.42848,3.95233 10.857,5.4285 -0.54223,2.91331 -0.33371,5.85257 -1.17072,7.8777 -0.79653,1.9272 -9.25126,0.72382 -9.54342,-0.44922 -1.04708,-4.20395 -1.76188,-7.71419 -0.14286,-12.85698 z"
         id="path4461"
         inkscape:connector-curvature="0"
         sodipodi:nodetypes="ccssc" />
      <path
         sodipodi:nodetypes="cssc"
         inkscape:connector-curvature="0"
         id="path4466"
         d="m 345.69914,924.61309 c 2.58489,-3.68524 -1.83405,-47.48927 -4.14281,-47.57084 -3.61907,-0.12787 -9.06368,28.15858 -9.85702,39.85665 -0.27628,4.07383 11.08695,7.84344 13.99983,7.71419 z"
         style="display:inline;fill:#ffffff;fill-opacity:1;fill-rule:evenodd;stroke:none;stroke-width:1px;stroke-linecap:butt;stroke-linejoin:miter;stroke-opacity:1" />
      <path
         sodipodi:nodetypes="ccssc"
         inkscape:connector-curvature="0"
         id="path4472"
         d="m 373.77125,929.84845 11.78429,-1.55829 c -0.70767,-4.12893 -0.79241,-5.83137 -1.73627,-7.13026 -0.58837,-0.80968 -8.67425,-1.06488 -9.19171,0.46385 -0.80434,2.37621 -0.85995,0.9606 -0.85631,8.2247 z"
         style="display:inline;fill:#ffffff;fill-opacity:1;fill-rule:evenodd;stroke:none;stroke-width:1px;stroke-linecap:butt;stroke-linejoin:miter;stroke-opacity:1" />
      <path
         style="display:inline;fill:#ffffff;fill-opacity:1;fill-rule:evenodd;stroke:none;stroke-width:1px;stroke-linecap:butt;stroke-linejoin:miter;stroke-opacity:1"
         d="m 372.12699,929.70559 -11.78429,-1.55828 c 0.70767,-4.12894 0.79241,-5.83137 1.73627,-7.13027 0.58837,-0.80967 8.67424,-1.06488 9.19171,0.46385 0.80433,2.37621 0.85995,0.96061 0.85631,8.2247 z"
         id="path4474"
         inkscape:connector-curvature="0"
         sodipodi:nodetypes="ccssc" />
      <path
         style="display:inline;fill:#ffffff;fill-opacity:1;fill-rule:evenodd;stroke:none;stroke-width:1px;stroke-linecap:butt;stroke-linejoin:miter;stroke-opacity:1"
         d="m 358.84531,908.36399 c -3.66662,1.76188 -6.61897,2.38092 -10.71416,3.99995 0.54892,2.9492 0.55078,3.70553 1.20175,5.80936 0.36203,1.17004 9.35155,0.14457 9.94098,-0.66657 1.41176,-1.94282 0.19047,-3.71424 -0.42857,-9.14274 z"
         id="path4476"
         inkscape:connector-curvature="0"
         sodipodi:nodetypes="ccssc" />
      <path
         sodipodi:nodetypes="ccssc"
         inkscape:connector-curvature="0"
         id="path4478"
         d="m 387.7847,908.36399 c 3.66661,1.76188 6.61896,2.38092 10.71415,3.99995 -0.54891,2.9492 -0.55078,3.70553 -1.20175,5.80936 -0.36203,1.17004 -9.35155,0.14457 -9.94097,-0.66657 -1.41176,-1.94282 -0.19047,-3.71424 0.42857,-9.14274 z"
         style="display:inline;fill:#ffffff;fill-opacity:1;fill-rule:evenodd;stroke:none;stroke-width:1px;stroke-linecap:butt;stroke-linejoin:miter;stroke-opacity:1" />
      <path
         sodipodi:nodetypes="ccssc"
         inkscape:connector-curvature="0"
         id="path4480"
         d="m 358.69859,927.70562 -10.78431,-1.98685 c 0.70767,-4.12893 0.0782,-3.40283 1.022,-4.70173 0.58837,-0.80967 8.67424,-1.06488 9.19171,0.46385 0.80433,2.37621 0.57424,-1.03937 0.5706,6.22473 z"
         style="display:inline;fill:#ffffff;fill-opacity:1;fill-rule:evenodd;stroke:none;stroke-width:1px;stroke-linecap:butt;stroke-linejoin:miter;stroke-opacity:1" />
      <path
         style="display:inline;fill:#ffffff;fill-opacity:1;fill-rule:evenodd;stroke:none;stroke-width:1px;stroke-linecap:butt;stroke-linejoin:miter;stroke-opacity:1"
         d="m 387.23269,927.99132 10.7843,-1.98684 c -0.70767,-4.12893 -0.0782,-3.40283 -1.02199,-4.70173 -0.58837,-0.80968 -8.67425,-1.06488 -9.19171,0.46385 -0.80434,2.37621 -0.57424,-1.03937 -0.5706,6.22472 z"
         id="path4482"
         inkscape:connector-curvature="0"
         sodipodi:nodetypes="ccssc" />
      <path
         style="display:inline;fill:#ffffff;fill-opacity:1;fill-rule:evenodd;stroke:none;stroke-width:1px;stroke-linecap:butt;stroke-linejoin:miter;stroke-opacity:1"
         d="m 400.48009,924.8988 c -2.58489,-3.68524 1.83405,-47.48927 4.14281,-47.57084 3.61907,-0.12787 9.06368,28.15857 9.85702,39.85664 0.27628,4.07384 -11.08695,7.84345 -13.99983,7.7142 z"
         id="path4484"
         inkscape:connector-curvature="0"
         sodipodi:nodetypes="cssc" />
      <path
         sodipodi:nodetypes="ssssssscss"
         inkscape:connector-curvature="0"
         id="path16347"
         d="M 336.01441,700.9422 C 230.14765,614.84377 202.19694,611.56607 155.83739,700.70058 127.72655,754.74869 112.75553,820.0701 82.233959,849.17705 66.921726,863.77958 37.247874,867.02425 20.520446,864.034 c -23.8922518,-4.27104 -24.9487118,3.33462 3.832584,14.24493 59.822548,22.67732 92.52001,8.4884 132.63911,-46.11778 19.53459,-26.58858 31.7245,-46.9629 49.8117,-80.12575 5.89628,-10.81083 14.02206,-29.49548 20.2384,-31.77832 19.38207,14.18998 38.31076,29.24002 56.06666,42.39864 16.06375,11.90459 65.131,-51.77087 52.90551,-61.71352 z"
         style="display:inline;fill:#000000;fill-opacity:1;fill-rule:evenodd;stroke:#ffffff;stroke-width:3.99994993;stroke-linecap:butt;stroke-linejoin:miter;stroke-miterlimit:4;stroke-dasharray:none;stroke-opacity:1" />
      <path
         style="display:inline;fill:#000000;fill-opacity:1;fill-rule:evenodd;stroke:#ffffff;stroke-width:3.99994993;stroke-linecap:butt;stroke-linejoin:miter;stroke-miterlimit:4;stroke-dasharray:none;stroke-opacity:1"
         d="m 410.2799,702.55843 c 105.86675,-86.09844 133.81746,-89.37614 180.17701,-0.24162 28.11084,54.04811 43.08186,119.36952 73.60343,148.47646 15.31223,14.60254 44.98608,17.8472 61.71351,14.85696 23.89225,-4.27104 24.94871,3.33462 -3.83259,14.24493 -59.82254,22.67731 -92.52001,8.4884 -132.6391,-46.11778 -19.53459,-26.58858 -31.7245,-46.96291 -49.8117,-80.12575 -5.89628,-10.81083 -14.02206,-29.49549 -20.2384,-31.77832 -19.38207,14.18997 -38.31076,29.24002 -56.06666,42.39864 -16.06375,11.90459 -65.131,-51.77087 -52.9055,-61.71352 z"
         id="path4143"
         inkscape:connector-curvature="0"
         sodipodi:nodetypes="ssssssscss" />
    </g>
  </g>
</svg>
