<?xml version="1.0" encoding="UTF-8" standalone="no"?>
<svg
   xmlns:dc="http://purl.org/dc/elements/1.1/"
   xmlns:cc="http://creativecommons.org/ns#"
   xmlns:rdf="http://www.w3.org/1999/02/22-rdf-syntax-ns#"
   xmlns:svg="http://www.w3.org/2000/svg"
   xmlns="http://www.w3.org/2000/svg"
   xmlns:sodipodi="http://sodipodi.sourceforge.net/DTD/sodipodi-0.dtd"
   xmlns:inkscape="http://www.inkscape.org/namespaces/inkscape"
   viewBox="0 0 747.00001 429.99997"
   id="svg5218"
   version="1.1"
   inkscape:version="0.91 r13725"
   sodipodi:docname="logo.svg"
   width="747"
   height="430"
   inkscape:export-filename="/Users/adam.fitzpatrick/play/mighty-runner/design/logo.png"
   inkscape:export-xdpi="54.07"
   inkscape:export-ydpi="54.07">
  <metadata
     id="metadata5238">
    <rdf:RDF>
      <cc:Work
         rdf:about="">
        <dc:format>image/svg+xml</dc:format>
        <dc:type
           rdf:resource="http://purl.org/dc/dcmitype/StillImage" />
        <dc:title></dc:title>
      </cc:Work>
    </rdf:RDF>
  </metadata>
  <defs
     id="defs5236" />
  <sodipodi:namedview
     pagecolor="#ffffff"
     bordercolor="#666666"
     borderopacity="1"
     objecttolerance="10"
     gridtolerance="10"
     guidetolerance="10"
     inkscape:pageopacity="0"
     inkscape:pageshadow="2"
     inkscape:window-width="640"
     inkscape:window-height="480"
     id="namedview5234"
     showgrid="false"
     inkscape:zoom="1.2685916"
     inkscape:cx="317.97914"
     inkscape:cy="80.570139"
     inkscape:current-layer="g5220"
     inkscape:showpageshadow="false" />
  <g
     id="g5220"
     style="fill-rule:evenodd"
     transform="translate(0,-622.36206)">
    <path
       d="m 178.42175,742.29336 c 16.41,-5.973 64.132,-9.206 90.892,1.665 43.307,17.594 54.33,45.039 55.327,73.677 0.476,13.68 -3.455,27.895 -5.469,37.557 7.319,12.604 8.066,22.637 1.385,33.527 l 0.39,9.445 -5.285,13.48 -23.229,7.116 c -13.345,-7.547 -23.79119,-3.094 -27.99319,11.644 -14.41946,-9.04136 -27.72414,-15.57444 -39.91403,-2.0413 -6.4097,-8.48955 -25.63949,-10.29037 -42.63969,2.95849 -0.369,-8.203 -9.85909,-21.50619 -24.22709,-10.85219 l -25.591,-7.372 -6.5,-13.658 2.259,-10.145 c -5.36,-11.111 -5.577,-21.937 1.92,-31.62 -2.949,-13.948 -8.065,-31.594 -8.277,-44.128 -0.73,-43.18 43.595,-66.391 56.952,-71.253 z"
       id="path5224"
       inkscape:connector-curvature="0"
       style="fill:#000000;fill-opacity:1;stroke:#ffffff;stroke-width:8;stroke-miterlimit:4;stroke-dasharray:none;stroke-opacity:1"
       inkscape:export-xdpi="182.13"
       inkscape:export-ydpi="182.13"
       sodipodi:nodetypes="ccccccccccccccccsc" />
    <path
       d="m 220.97175,856.22336 c 0,0 -15.734,33.217 -15.428,37.714 0.324,4.765 6.271,14.283 8.571,14.857 2.691,0.671 8,-2.286 8,-2.286 l 3.429,-12 5.142,11.429 c 0,0 5.557,2.277 8,1.143 2.397,-1.113 6.847,-10.347 6.857,-13.143 0.02,-5.723 -17.142,-38.857 -17.142,-38.857 l -3.429,3.429 z m -25.142,-15.771 c -47.23,-30.075 -50.89,14.046 -37.143,22.857 10.821,6.934 25.524,3.047 38.285,4.571 l 17.715,-22.285 c -6.286,-1.715 -13.362,-1.644 -18.857,-5.143 z m 58.149,0.571 c 47.229,-30.075 50.89,14.047 37.142,22.857 -10.82,6.935 -25.523,3.048 -38.285,4.572 l -17.714,-22.286 c 6.286,-1.714 13.361,-1.643 18.857,-5.143 z"
       id="path5226"
       inkscape:connector-curvature="0"
       style="fill:#ffffff;fill-opacity:1;stroke:none;stroke-opacity:1"
       inkscape:export-xdpi="182.13"
       inkscape:export-ydpi="182.13" />
    <path
       d="m 158.40175,929.02236 c 0,0 -20.47,19.683 1.142,30.857 28.38,14.672 64.571,-9.428 64.571,-9.428 0,0 39.043,23.83 63.142,10 23.897,-13.714 5.429,-31.429 5.429,-31.429 0,0 -2.85,24.22 -19.714,8.286 -29.999,-28.344 -48.286,-10.286 -48.286,-10.286 0,0 -17.621,-17.658 -49.428,10 -18.499,16.087 -16.856,-8 -16.856,-8 z"
       id="path5228"
       inkscape:connector-curvature="0"
       style="fill:#000000;fill-opacity:1;stroke:#ffffff;stroke-width:8;stroke-miterlimit:4;stroke-dasharray:none;stroke-opacity:1"
       inkscape:export-xdpi="182.13"
       inkscape:export-ydpi="182.13" />
  </g>
</svg>
