<?xml version="1.0" encoding="UTF-8" standalone="no"?>
<svg
   xmlns:dc="http://purl.org/dc/elements/1.1/"
   xmlns:cc="http://creativecommons.org/ns#"
   xmlns:rdf="http://www.w3.org/1999/02/22-rdf-syntax-ns#"
   xmlns:svg="http://www.w3.org/2000/svg"
   xmlns="http://www.w3.org/2000/svg"
   xmlns:sodipodi="http://sodipodi.sourceforge.net/DTD/sodipodi-0.dtd"
   xmlns:inkscape="http://www.inkscape.org/namespaces/inkscape"
   viewBox="0 0 747.00001 429.99997"
   id="svg5218"
   version="1.1"
   inkscape:version="0.91 r13725"
   sodipodi:docname="logo.svg"
   width="747"
   height="430">
  <metadata
     id="metadata5238">
    <rdf:RDF>
      <cc:Work
         rdf:about="">
        <dc:format>image/svg+xml</dc:format>
        <dc:type
           rdf:resource="http://purl.org/dc/dcmitype/StillImage" />
        <dc:title></dc:title>
      </cc:Work>
    </rdf:RDF>
  </metadata>
  <defs
     id="defs5236" />
  <sodipodi:namedview
     pagecolor="#ffffff"
     bordercolor="#666666"
     borderopacity="1"
     objecttolerance="10"
     gridtolerance="10"
     guidetolerance="10"
     inkscape:pageopacity="0"
     inkscape:pageshadow="2"
     inkscape:window-width="640"
     inkscape:window-height="480"
     id="namedview5234"
     showgrid="false"
     inkscape:zoom="2.5371831"
     inkscape:cx="348.94767"
     inkscape:cy="232.51019"
     inkscape:current-layer="g5220" />
  <g
     id="g5220"
     style="fill-rule:evenodd"
     transform="translate(0,-622.36206)">
    <g
       id="g5851"
       transform="translate(0.899147,-8.732699)">
      <path
         style="stroke:#ffffff;stroke-width:5;stroke-miterlimit:4;stroke-dasharray:none;stroke-opacity:1"
         inkscape:connector-curvature="0"
         id="path5222"
         d="m 285.56,858.793 c 2.477,10.286 3.524,20 -3.714,30.857 l 8.572,-3.429 c -3.524,12.667 -12.762,18.19 -13.143,31.143 3.143,-4.952 5.571,-7.62 8.571,-9.714 -7.952,11.571 -5.762,33.428 -8.857,42 3.19,-3.382 5.238,-3.334 7.429,-6.286 -3.048,6.38 -2.667,11.618 -4.857,18.285 2.952,-1.81 4.19,-4.762 6.285,-7.143 -1.714,7.524 -1.285,16.048 -5.143,22.571 4.143,-0.952 7,-5.619 11.143,-6.285 -4.38,10.762 0.524,21.38 4.857,28.857 2.095,-3.381 1.476,-7.762 3.714,-9.715 0.667,9 9.048,14.286 10.572,26.572 1.714,-3.477 1,-8.238 2.571,-10.857 5.62,5.904 5.667,13.523 4.857,21.142 3.238,-3.476 4.762,-9.238 8,-12.571 3.663,4.542 1.895,9.834 3.429,14.571 1.095,-4.333 3.047,-5.952 5.428,-7.428 1.857,9 9.429,17.57 16.286,21.428 -3.62,-5.905 -4.953,-10.81 -4,-16 3.333,6.81 6.81,8.619 10.857,11.429 -1.19,-3.81 -1.381,-6.19 -0.572,-8 5.286,3.428 7.143,11.857 12,15.428 -0.714,-8.333 1.572,-12.666 5.143,-15.143 2.81,6.857 0.476,12.714 2.857,19.714 1.952,-8.761 8.619,-12.095 10.571,-20.285 1.524,3.19 0.762,6.095 1.143,9.143 4.333,-1.715 7.095,-7.572 10.857,-12 0.238,4.905 -0.666,10.38 -4.857,14 10.952,-0.905 14.048,-12.81 18.286,-20.857 1.142,3.619 3.428,5.238 5.428,7.428 -0.714,-5.047 0.429,-9.523 2.286,-12.571 2.38,4.238 3.762,8.048 8,10.571 -2.19,-9.333 1.904,-13.523 2.857,-20.285 2.38,4.619 3.476,8.952 5.857,13.428 -1.143,-12.952 8.428,-19.619 9.857,-30.285 1.857,4.762 3.286,10.238 3.428,15.143 5.138,-8.713 6.381,-19.927 5.715,-31.429 3.857,3.667 7.428,2.476 11.142,3.715 -6.571,-9.048 -5.571,-19.095 -6.857,-28.857 l 7.715,12 c 1.197,-9.483 -3.227,-19.913 -3.112,-29.24 0.116,-9.352 -2.104,-16.781 -4.603,-21.331 4.096,2.047 6.476,6.666 9.714,10 -0.238,-10.953 -10.761,-21.048 -11.428,-31.143 2.62,1.572 4.524,4.286 7.714,4.429 -8.238,-10.19 -5.333,-28.38 -6.571,-35 l -175.426,2 z" />
      <path
         style="stroke:#ffffff;stroke-width:4"
         inkscape:connector-curvature="0"
         id="path5224"
         d="m 327.295,687.778 c 16.41,-5.973 64.132,-9.206 90.892,1.665 43.307,17.594 54.33,45.039 55.327,73.677 0.476,13.68 -3.455,27.895 -5.469,37.557 7.319,12.604 8.066,22.637 1.385,33.527 l 0.39,9.445 -5.285,13.48 -23.229,7.116 c -13.345,-7.547 -22.119,-3.094 -26.321,11.644 l -85.062,-0.755 c -0.369,-8.203 -9.023,-19.834 -23.391,-9.18 l -25.591,-7.372 -6.5,-13.658 2.259,-10.145 c -5.36,-11.111 -5.577,-21.937 1.92,-31.62 -2.949,-13.948 -8.065,-31.594 -8.277,-44.128 -0.73,-43.18 43.595,-66.391 56.952,-71.253 z" />
      <path
         style="fill:#ffffff"
         inkscape:connector-curvature="0"
         id="path5226"
         d="m 369.845,807.708 c 0,0 -15.734,33.217 -15.428,37.714 0.324,4.765 6.271,14.283 8.571,14.857 2.691,0.671 8,-2.286 8,-2.286 l 3.429,-12 5.142,11.429 c 0,0 5.557,2.277 8,1.143 2.397,-1.113 6.847,-10.347 6.857,-13.143 0.02,-5.723 -17.142,-38.857 -17.142,-38.857 l -3.429,3.429 z m -25.142,-15.771 c -47.23,-30.075 -50.89,14.046 -37.143,22.857 10.821,6.934 25.524,3.047 38.285,4.571 L 363.56,797.08 c -6.286,-1.715 -13.362,-1.644 -18.857,-5.143 z m 58.149,0.571 c 47.229,-30.075 50.89,14.047 37.142,22.857 -10.82,6.935 -25.523,3.048 -38.285,4.572 l -17.714,-22.286 c 6.286,-1.714 13.361,-1.643 18.857,-5.143 z" />
      <path
         style="stroke:#ffffff;stroke-width:4"
         inkscape:connector-curvature="0"
         id="path5228"
         d="m 307.275,874.507 c 0,0 -20.47,19.683 1.142,30.857 28.38,14.672 64.571,-9.428 64.571,-9.428 0,0 39.043,23.83 63.142,10 23.897,-13.714 5.429,-31.429 5.429,-31.429 0,0 -2.85,24.22 -19.714,8.286 -29.999,-28.344 -48.286,-10.286 -48.286,-10.286 0,0 -17.621,-17.658 -49.428,10 -18.499,16.087 -16.856,-8 -16.856,-8 z" />
      <path
         style="fill:#ffffff"
         inkscape:connector-curvature="0"
         id="path5230"
         d="m 370.845,902.364 c -2.952,2.048 -6.047,3.667 -10.143,5.286 0.55,2.949 0.779,6.35 1.63,8.38 0.791,1.885 8.067,1.43 8.942,0.62 1.761,-1.633 0.904,-9.143 -0.429,-14.286 z m 4.589,0.286 c 3.286,2.047 7.429,3.952 10.857,5.428 -0.542,2.914 -0.333,5.853 -1.17,7.878 -0.797,1.927 -9.252,0.724 -9.544,-0.45 -1.047,-4.203 -1.762,-7.713 -0.143,-12.856 z M 345.7,924.613 c 2.584,-3.685 -1.835,-47.49 -4.144,-47.57 -3.619,-0.129 -9.063,28.158 -9.857,39.856 -0.276,4.074 11.087,7.843 14,7.714 z m 28.071,5.235 11.785,-1.558 c -0.708,-4.129 -0.793,-5.831 -1.737,-7.13 -0.588,-0.81 -8.674,-1.065 -9.191,0.464 -0.805,2.376 -0.86,0.96 -0.857,8.224 z m -1.644,-0.142 -11.784,-1.559 c 0.707,-4.129 0.792,-5.831 1.736,-7.13 0.588,-0.81 8.674,-1.065 9.192,0.464 0.804,2.376 0.86,0.96 0.856,8.225 z m -13.282,-21.342 c -3.666,1.762 -6.619,2.38 -10.714,4 0.55,2.95 0.55,3.705 1.202,5.81 0.362,1.17 9.351,0.144 9.94,-0.667 1.413,-1.943 0.191,-3.715 -0.428,-9.143 z m 28.94,0 c 3.666,1.762 6.619,2.38 10.714,4 -0.55,2.95 -0.55,3.705 -1.202,5.81 -0.362,1.17 -9.351,0.144 -9.94,-0.667 -1.413,-1.943 -0.191,-3.715 0.428,-9.143 z m -29.086,19.342 -10.785,-1.987 c 0.708,-4.13 0.078,-3.403 1.022,-4.702 0.589,-0.81 8.675,-1.065 9.192,0.464 0.804,2.376 0.574,-1.04 0.57,6.225 z m 28.534,0.285 10.784,-1.987 c -0.708,-4.128 -0.078,-3.402 -1.022,-4.701 -0.588,-0.81 -8.674,-1.065 -9.192,0.464 -0.804,2.376 -0.574,-1.04 -0.57,6.224 z m 13.247,-3.092 c -2.585,-3.685 1.834,-47.49 4.143,-47.571 3.619,-0.128 9.064,28.159 9.857,39.857 0.276,4.073 -11.087,7.843 -14,7.714 z" />
      <path
         style="stroke:#ffffff;stroke-width:4"
         inkscape:connector-curvature="0"
         id="path5232"
         d="m 336.014,700.942 c -105.866,-86.098 -133.817,-89.376 -180.177,-0.241 -28.11,54.048 -43.081,119.37 -73.603,148.476 -15.312,14.603 -44.986,17.847 -61.714,14.857 -23.892,-4.271 -24.948,3.335 3.833,14.245 59.823,22.677 92.52,8.488 132.64,-46.118 19.534,-26.588 31.724,-46.963 49.81,-80.126 5.897,-10.81 14.023,-29.495 20.24,-31.778 19.381,14.19 38.31,29.24 56.066,42.399 16.064,11.904 65.13,-51.771 52.905,-61.714 z m 74.266,1.616 c 105.867,-86.098 133.817,-89.376 180.177,-0.241 28.11,54.048 43.082,119.37 73.603,148.476 15.313,14.603 44.986,17.847 61.714,14.857 23.892,-4.27 24.949,3.335 -3.833,14.245 -59.822,22.677 -92.52,8.489 -132.639,-46.118 -19.534,-26.588 -31.724,-46.963 -49.812,-80.125 -5.896,-10.811 -14.022,-29.496 -20.238,-31.779 -19.382,14.19 -38.31,29.24 -56.067,42.399 -16.063,11.905 -65.13,-51.77 -52.905,-61.714 z" />
    </g>
  </g>
</svg>
